<svg width="74" height="36" viewBox="0 0 74 36" fill="none" xmlns="http://www.w3.org/2000/svg">
<path d="M39.6506 19.701L28.2801 33.5503L16.9097 19.701H39.6506ZM42.6967 18.4631H13.8513L28.2801 35.9999L42.6967 18.4631Z" fill="#263238"/>
<path d="M59.4194 2.47557L70.7898 16.3249H48.0489L59.4194 2.47557ZM59.4194 0L44.9905 17.5367H73.8482L59.4194 0Z" fill="#263238"/>
<path d="M0.0267944 0L12.1249 15.5113L25.3451 0.389491L0.0267944 0Z" fill="#4CAF4F"/>
<path d="M28.2804 1.35889L40.9704 16.7836H15.5657L28.2804 1.35889Z" fill="#4CAF4F"/>
<path d="M44.2384 20.1511L56.9408 36.0001H30.9318L43.8438 20.1511H44.2384Z" fill="#4CAF4F"/>
<path d="M46.9884 19.1902L59.4194 34.7967L72.0231 19.1902H46.9884Z" fill="#4CAF4F"/>
</svg>
